PathFileType	4	(X/Y/Z)	23_coords_data.trc
DataRate	CameraRate	NumFrames	NumMarkers	Units	OrigDataRate	OrigDataStartFrame	OrigNumFrames
30.0	30.0	6	21	m	30.0	32	62
Frame#	Time	THUMB_TIP	THUMB_IP	THUMB_MCP	THUMB_CMC	INDEX_TIP	INDEX_DIP	INDEX_PIP	INDEX_MCP	MIDDLE_TIP	MIDDLE_DIP	MIDDLE_PIP	MIDDLE_MCP	RING_TIP	RING_DIP	RING_PIP	RING_MCP	PINKY_TIP	PINKY_DIP	PINKY_PIP	PINKY_MCP	WRIST
X1	Y1	Z1	X2	Y2	Z2	X3	Y3	Z3	X4	Y4	Z4	X5	Y5	Z5	X6	Y6	Z6	X7	Y7	Z7	X8	Y8	Z8	X9	Y9	Z9	X10	Y10	Z10	X11	Y11	Z11	X12	Y12	Z12	X13	Y13	Z13	X14	Y14	Z14	X15	Y15	Z15	X16	Y16	Z16	X17	Y17	Z17	X18	Y18	Z18	X19	Y19	Z19	X20	Y20	Z20	X21	Y21	Z21
30	1.0333333333333288	0.5098767947086675	-0.007848267216735483	-0.16631274247033373	0.5023304352918393	-0.012779855424868813	-0.1451767093208176	0.4888355582713333	-0.021024643228123252	-0.11836753610938255	0.4788823686233795	-0.0259019889987816	-0.07515832975164771	0.5295951190854558	-0.024497925387391928	-0.10532203589481015	0.5382047832806854	-0.013165090788109124	-0.11652206010865351	0.5355058447482772	0.008264664503112584	-0.129386396545355	0.4972122394108957	0.020673074319674134	-0.11548433734216013	0.5255989843544496	-0.021948298318215875	-0.09349901704780916	0.5387033629097987	-0.011364198699483574	-0.10015124208450621	0.5436309329113709	0.015066149261859785	-0.11140136699589775	0.5044983968501258	0.030672014620018784	-0.09652690872548131	0.527918616715564	-0.011557722152617411	-0.08386889908351325	0.5421153396982528	-0.0015877671000802396	-0.0887732902591013	0.5481863698342782	0.021819406902451655	-0.09472533001893768	0.5129467449957809	0.03308667611738392	-0.07841771462979485	0.5377799411842006	-0.012194788752509789	-0.07680704994640497	0.5512860421839025	-0.0019974686739576697	-0.07937607680523706	0.5497300604983824	0.01885632411872462	-0.07750250637576306	0.5176805313363989	0.024803283192770365	-0.0620640864674048	0.4622830810018609	-0.023011742144276925	-0.051989820119430985
31	1.0666666666666622	0.5095989814274313	-0.008532358023850883	-0.16654839727353793	0.5021577408894267	-0.013383905026330134	-0.1453566434306326	0.48875085336611024	-0.02147988367698539	-0.1184581212291198	0.47883065528163743	-0.025914825877874526	-0.07519369060025805	0.538021676985106	-0.02523280720821275	-0.10890234801605259	0.5427421451933081	-0.011480219713098982	-0.1196997327496161	0.5363083518402385	0.010219585878390447	-0.13064206218084617	0.4978259771691258	0.020270327891625306	-0.11541952892729401	0.5333438616436545	-0.02318296815037746	-0.09614699247191205	0.5439827759205667	-0.010089346438460267	-0.10273262634221858	0.544683315172961	0.01747687283396493	-0.11216779193591275	0.5049416186921868	0.03043305745356628	-0.09639177336553739	0.5344268028461474	-0.013202076750998826	-0.08606832600452796	0.546565697964092	-0.0006319763277986556	-0.09050000747618259	0.5490522642852559	0.0237370061407558	-0.09498884478418756	0.5133417588365747	0.03277327594154811	-0.0783207176342341	0.5433194392585143	-0.013082157994390053	-0.07865037688242138	0.554643341240297	-0.0003275004151348515	-0.08009535229498865	0.5503278543073981	0.020015917589043974	-0.07720849666312302	0.5179749472989524	0.02449305324381823	-0.061907251111481654	0.4622830810018609	-0.023011742144276925	-0.051989820119430985
32	1.0999999999999952	0.5093214508491536	-0.009364354497039207	-0.1668039071600293	0.5019919579693174	-0.014111571689373381	-0.1455496731570538	0.48867356143111645	-0.022018247661636292	-0.11855106599444487	0.47877017786872206	-0.02594133583645275	-0.0752333747680104	0.547545915437069	-0.024590224798643923	-0.11378976009749608	0.5475688421504445	-0.00919107799771457	-0.12332211301633178	0.5371911336440491	0.012076678757707016	-0.13180713050296722	0.4986781786589329	0.019714407284184166	-0.11531308626663006	0.5425809874168737	-0.023336752887679335	-0.09948380617043906	0.5499360214594009	-0.007975315190295706	-0.1056425159462494	0.5458398333469636	0.019964920156491317	-0.11285181838918257	0.5056116117526268	0.030031927738645603	-0.09622372569345294	0.542579302365374	-0.014139582038784404	-0.0887050896959175	0.5516919247289662	0.000981145965555763	-0.09235525383980503	0.5500287078343837	0.025674613222587017	-0.09512045968883487	0.5139104295770677	0.03230394047122642	-0.0782017472686316	0.5503245854133337	-0.013152545768532198	-0.08056539366142779	0.5583549534465387	0.001964106155918688	-0.0805702769261234	0.5510476494788097	0.021267331803583756	-0.07672309518898979	0.5183860688654951	0.024054456963382154	-0.061678609947427576	0.4622830810018609	-0.023011742144276925	-0.051989820119430985
33	1.1333333333333284	0.5091666810326393	-0.010331387090161792	-0.1670158163139206	0.501935033177887	-0.014947378265273037	-0.1456992524544204	0.4886721107077874	-0.022605895679949528	-0.11860198324585947	0.4787449982678406	-0.02599364754516309	-0.07524456662650347	0.5572214397254542	-0.02196224422877735	-0.11981186236887875	0.552366479165771	-0.006172810728957923	-0.12723635883117845	0.5381487598775904	0.013793222203165922	-0.1328241866914337	0.49975448526916805	0.019014536828063755	-0.11515348651060109	0.5529376837872688	-0.021830152611138187	-0.10340497901045298	0.5561765817243491	-0.004826589282348248	-0.10873305317256876	0.5470507345638609	0.022457113519067207	-0.1133943861415212	0.506488843705865	0.02947044995115322	-0.09602504409542156	0.5522460692143383	-0.013668315568557854	-0.09168220613516698	0.5571681966686972	0.003490639173142962	-0.09420072425011239	0.5510627619440827	0.027617049192039	-0.09510625471541101	0.5146273652482722	0.031693635328320036	-0.07806031246828338	0.5586844210066968	-0.01169463281693739	-0.08246127321054642	0.5622165779915991	0.00496755733979104	-0.08075971915174296	0.5518406854864488	0.02259191347601064	-0.07601262061629366	0.5188764522626381	0.023519850898240824	-0.061405029743509365	0.4622830810018609	-0.023011742144276925	-0.051989820119430985
34	1.1666666666666616	0.5090422133976682	-0.01145784774309666	-0.16721788477807803	0.501917367337676	-0.01591967639603542	-0.14583264094750115	0.488713642053275	-0.02328489409291934	-0.11862537708485632	0.47873808794258693	-0.026087067827270882	-0.0752372895198663	0.5658906011626734	-0.017480102264857522	-0.1263484207649085	0.5567128799101921	-0.0026221206866816615	-0.13114527557137734	0.5391817778185628	0.015222186966676321	-0.13364547092878043	0.5010368319904562	0.018165097964089272	-0.11493882834834579	0.5636693353085875	-0.018271702063134	-0.10775975698557261	0.5622523457997796	-0.0006788303212036384	-0.11181968366026973	0.5482843738065	0.024824798616283172	-0.1137869709839574	0.5075762511608012	0.028731169849614657	-0.09579427981642608	0.5627412731222045	-0.011105935063719818	-0.0948881375503624	0.5626649118457758	0.00689171794792709	-0.09592672073327135	0.5521426787731583	0.029441050797033186	-0.09493164373839102	0.5155111095149382	0.030919720811956375	-0.07788281672105046	0.5677219001590811	-0.008081209491289432	-0.08392627858197277	0.565946874074548	0.008607579883500471	-0.08055973857729082	0.5526827149063939	0.023938513125248417	-0.07509745091561126	0.5194724277809359	0.02285308305253675	-0.06106954581178692	0.46228308100186083	-0.023011742144276925	-0.051989820119430985
35	1.1999999999999948	0.5089179812553808	-0.01261801417782038	-0.16740766817844255	0.5019069622544233	-0.016911965620825087	-0.1459505576186927	0.48876849691664037	-0.023969040035198175	-0.11863026425866663	0.4787440611278399	-0.026186832830489393	-0.0752196424912539	0.5728196977328646	-0.011654077508012395	-0.1327450988687482	0.5603358765841646	0.0013001555597231818	-0.1348288587287273	0.5402341248634934	0.016386942957298367	-0.1342647162105155	0.5024348178193129	0.01723220572773332	-0.11466537918528208	0.573808035352268	-0.012568793581971827	-0.11228665979725638	0.5677144852039531	0.004310730165325016	-0.11472598852754556	0.549451386210741	0.027012852230997697	-0.11403142472238526	0.5087874084112244	0.02786265721566017	-0.09554178811134106	0.5728882237772308	-0.0061448867929999595	-0.0979818569705243	0.567735704089877	0.011121691965723102	-0.09741900810959814	0.5531828102867561	0.03113621699223368	-0.09462400383084046	0.516482235486721	0.030034887371156782	-0.0776954564503719	0.5761193087935639	-0.0022099405718183363	-0.08463729563208522	0.5692780610027469	0.012773498905788383	-0.07997962775153189	0.5534974796737648	0.025271822934703203	-0.07401496779578998	0.5201261286061487	0.022097870664170904	-0.060704730911861016	0.46228308100186083	-0.023011742144276925	-0.051989820119430985
